# This file uses centimeters as units for non-parametric coordinates.

mtllib arn.mtl
g default
v 1.606084 0.000000 0.000000
v 1.559062 -0.250025 0.250025
v 1.430595 -0.433019 0.433019
v 1.255105 -0.500000 0.500000
v 1.255105 0.500000 0.500000
v 1.430595 0.433019 0.433019
v 1.559062 0.250025 0.250025
v 1.255105 0.500000 -0.500000
v 1.430595 0.433019 -0.433019
v 1.559062 0.250025 -0.250025
v 1.255105 -0.500000 -0.500000
v 1.430595 -0.433019 -0.433019
v 1.559062 -0.250025 -0.250025
v -3.393916 -0.250025 0.250025
v -3.387936 -0.314723 0.314723
v -3.370405 -0.375012 0.375012
v -3.342516 -0.426784 0.426784
v -3.306171 -0.466510 0.466510
v -3.263846 -0.491482 0.491482
v -3.218426 -0.500000 0.500000
v -3.393916 0.250025 0.250025
v -3.387936 0.314723 0.314723
v -3.370405 0.375012 0.375012
v -3.342516 0.426784 0.426784
v -3.306171 0.466510 0.466510
v -3.263846 0.491482 0.491482
v -3.218426 0.500000 0.500000
v -3.393916 0.250025 -0.250025
v -3.387936 0.314723 -0.314723
v -3.370405 0.375012 -0.375012
v -3.342516 0.426784 -0.426784
v -3.306171 0.466510 -0.466510
v -3.263846 0.491482 -0.491482
v -3.218426 0.500000 -0.500000
v -3.393916 -0.250025 -0.250025
v -3.387936 -0.314723 -0.314723
v -3.370405 -0.375012 -0.375012
v -3.342516 -0.426784 -0.426784
v -3.306171 -0.466510 -0.466510
v -3.263846 -0.491482 -0.491482
v -3.218426 -0.500000 -0.500000
vt 0.607451 0.000000
vt 0.750000 0.125000
vt 0.614810 0.895172
vt 0.719638 -0.000000
vt 0.609510 0.970673
vt 0.638837 -0.000000
vt 0.611889 0.250000
vt 0.625000 0.250000
vt 0.611502 0.499994
vt 0.875000 0.250000
vt 0.625000 0.500000
vt 0.611468 0.749579
vt 0.875000 0.000000
vt 0.625000 0.750000
vt 0.312506 0.187506
vt 0.187494 0.187506
vt 0.383774 -0.000000
vt 0.607451 0.250000
vt 0.383775 0.250000
vt 0.607451 0.500000
vt 0.383775 0.500000
vt 0.607451 0.750000
vt 0.383775 0.750000
vt 0.607451 1.000000
vt 0.187494 0.062494
vt 0.383775 1.000000
vt 0.312506 0.062494
vt 0.336204 0.038796
vt 0.357299 0.017701
vt 0.375000 0.000000
vt 0.375000 1.000000
vt 0.379600 1.000000
vt 0.379600 -0.000000
vt 0.382549 1.000000
vt 0.382549 -0.000000
vt 0.336204 0.211204
vt 0.357299 0.232299
vt 0.375000 0.250000
vt 0.379651 0.250000
vt 0.382482 0.250000
vt 0.163796 0.211204
vt 0.142701 0.232299
vt 0.375000 0.500000
vt 0.125000 0.250000
vt 0.379651 0.500000
vt 0.382482 0.500000
vt 0.163796 0.038796
vt 0.142701 0.017701
vt 0.375000 0.750000
vt 0.125000 0.000000
vt 0.379651 0.750000
vt 0.382482 0.750000
vn 0.007377 0.000000 0.999973
vn 0.356588 0.000000 0.934262
vn 0.356588 0.000000 0.934262
vn 0.007377 0.000000 0.999973
vn 0.818451 0.000000 0.574576
vn 0.913838 -0.287141 0.287142
vn 0.913838 0.287142 0.287142
vn 0.818451 0.000000 0.574576
vn 1.000000 0.000000 0.000000
vn 0.913838 0.287142 -0.287142
vn 0.007377 0.999973 0.000000
vn 0.356588 0.934262 0.000000
vn 0.356588 0.934262 0.000000
vn 0.007377 0.999973 0.000000
vn 0.818452 0.574576 0.000000
vn 0.818452 0.574576 0.000000
vn 0.913838 -0.287141 -0.287142
vn 0.007377 0.000000 -0.999973
vn 0.356588 0.000000 -0.934262
vn 0.356588 0.000000 -0.934262
vn 0.007377 0.000000 -0.999973
vn 0.818451 0.000000 -0.574576
vn 0.818451 0.000000 -0.574576
vn 0.818452 -0.574575 0.000000
vn 0.818452 -0.574575 0.000000
vn 0.356588 -0.934262 0.000000
vn 0.007377 -0.999973 0.000000
vn 0.007377 -0.999973 0.000000
vn 0.356588 -0.934262 0.000000
vn -0.999802 -0.014081 -0.014081
vn -0.999802 -0.014081 0.014081
vn -0.999802 0.014081 0.014081
vn -0.999802 0.014081 -0.014081
vn -0.001160 0.000000 0.999999
vn -0.001160 0.000000 0.999999
vn -0.001160 0.999999 0.000000
vn -0.001160 0.999999 0.000000
vn -0.001160 0.000000 -0.999999
vn -0.001160 0.000000 -0.999999
vn -0.001160 -0.999999 0.000000
vn -0.001160 -0.999999 0.000000
vn -0.277632 0.000000 0.960688
vn -0.277632 0.000000 0.960688
vn -0.572278 0.000000 0.820060
vn -0.572278 0.000000 0.820060
vn -0.777514 0.000000 0.628866
vn -0.777514 0.000000 0.628866
vn -0.902743 0.000000 0.430181
vn -0.902743 0.000000 0.430181
vn -0.985225 -0.121101 0.121101
vn -0.985225 0.121101 0.121101
vn -0.277632 0.960687 0.000000
vn -0.277632 0.960687 0.000000
vn -0.572279 0.820059 0.000000
vn -0.572279 0.820059 0.000000
vn -0.777513 0.628866 0.000000
vn -0.777513 0.628866 0.000000
vn -0.902742 0.430182 0.000000
vn -0.902742 0.430182 0.000000
vn -0.985225 0.121101 -0.121101
vn -0.277632 0.000000 -0.960688
vn -0.277632 0.000000 -0.960688
vn -0.572278 0.000000 -0.820060
vn -0.572278 0.000000 -0.820060
vn -0.777514 0.000000 -0.628866
vn -0.777514 0.000000 -0.628866
vn -0.902743 0.000000 -0.430181
vn -0.902743 0.000000 -0.430181
vn -0.985225 -0.121101 -0.121101
vn -0.277632 -0.960687 0.000000
vn -0.277632 -0.960687 0.000000
vn -0.572279 -0.820059 0.000000
vn -0.572279 -0.820059 0.000000
vn -0.777513 -0.628866 0.000000
vn -0.777513 -0.628866 0.000000
vn -0.902742 -0.430182 0.000000
vn -0.902742 -0.430182 0.000000
s 1
g pCube1
usemtl initialShadingGroup
f 4/1/1 3/6/2 6/7/3 5/18/4
s 2
f 3/6/5 2/4/6 7/8/7 6/7/8
f 2/4/6 1/2/9 7/8/7
f 7/8/7 1/2/9 10/10/10
s 1
f 5/18/11 6/7/12 9/9/13 8/20/14
s 2
f 6/7/15 7/8/7 10/11/10 9/9/16
f 10/10/10 1/2/9 13/13/17
s 1
f 8/20/18 9/9/19 12/12/20 11/22/21
s 2
f 9/9/22 10/11/10 13/14/17 12/12/23
f 1/2/9 2/4/6 13/13/17
f 2/3/6 3/5/24 12/12/25 13/14/17
s 1
f 3/5/26 4/24/27 11/22/28 12/12/29
f 35/25/30 14/27/31 21/15/32 28/16/33
f 20/17/34 4/1/1 5/18/4 27/19/35
f 27/19/36 5/18/11 8/20/14 34/21/37
f 34/21/38 8/20/18 11/22/21 41/23/39
f 41/23/40 11/22/28 4/24/27 20/26/41
f 19/35/42 20/17/34 27/19/35 26/40/43
f 18/33/44 19/35/42 26/40/43 25/39/45
f 17/30/46 18/33/44 25/39/45 24/38/47
f 16/29/48 17/30/46 24/38/47 23/37/49
f 14/27/31 15/28/50 22/36/51 21/15/32
f 15/28/50 16/29/48 23/37/49 22/36/51
f 26/40/52 27/19/36 34/21/37 33/46/53
f 25/39/54 26/40/52 33/46/53 32/45/55
f 24/38/56 25/39/54 32/45/55 31/43/57
f 23/37/58 24/38/56 31/44/57 30/42/59
f 21/15/32 22/36/51 29/41/60 28/16/33
f 22/36/51 23/37/58 30/42/59 29/41/60
f 33/46/61 34/21/38 41/23/39 40/52/62
f 32/45/63 33/46/61 40/52/62 39/51/64
f 31/43/65 32/45/63 39/51/64 38/49/66
f 30/42/67 31/44/65 38/50/66 37/48/68
f 28/16/33 29/41/60 36/47/69 35/25/30
f 29/41/60 30/42/67 37/48/68 36/47/69
f 20/26/41 19/34/70 40/52/71 41/23/40
f 19/34/70 18/32/72 39/51/73 40/52/71
f 18/32/72 17/31/74 38/49/75 39/51/73
f 17/30/74 16/29/76 37/48/77 38/50/75
f 16/29/76 15/28/50 36/47/69 37/48/77
f 15/28/50 14/27/31 35/25/30 36/47/69
