# This file uses centimeters as units for non-parametric coordinates.

mtllib Body.mtl
g default
v 13.483137 7.623864 -4.380937
v 11.469441 7.623864 -8.333036
v 8.333036 7.623864 -11.469440
v 4.380936 7.623864 -13.483136
v 0.000000 7.623864 -14.177008
v -4.380936 7.623864 -13.483135
v -8.333035 7.623864 -11.469439
v -11.469438 7.623864 -8.333034
v -13.483131 7.623864 -4.380935
v -14.177003 7.623864 0.000000
v -13.483131 7.623864 4.380935
v -11.469437 7.623864 8.333034
v -8.333034 7.623864 11.469436
v -4.380935 7.623864 13.483130
v -0.000000 7.623864 14.177002
v 4.380934 7.623864 13.483130
v 8.333031 7.623864 11.469435
v 11.469434 7.623864 8.333033
v 13.483129 7.623864 4.380934
v 14.177000 7.623864 0.000000
v 0.000000 -16.718132 0.000000
v 0.000000 7.623864 0.000000
v 13.483137 -14.913877 -4.380937
v 13.398106 -15.471423 -4.353308
v 13.151336 -15.974391 -4.273128
v 12.766979 -16.373550 -4.148244
v 12.282665 -16.629824 -3.990881
v 11.745798 -16.718132 -3.816443
v 11.469441 -14.913877 -8.333036
v 11.397109 -15.471423 -8.280484
v 11.187194 -15.974391 -8.127972
v 10.860242 -16.373550 -7.890428
v 10.448259 -16.629824 -7.591105
v 9.991574 -16.718132 -7.259303
v 8.333036 -14.913877 -11.469440
v 8.280484 -15.471423 -11.397108
v 8.127972 -15.974391 -11.187193
v 7.890428 -16.373550 -10.860242
v 7.591105 -16.629824 -10.448258
v 7.259303 -16.718132 -9.991571
v 4.380936 -14.913877 -13.483136
v 4.353308 -15.471423 -13.398104
v 4.273127 -15.974391 -13.151332
v 4.148243 -16.373550 -12.766979
v 3.990880 -16.629824 -12.282664
v 3.816441 -16.718132 -11.745796
v 0.000000 -14.913877 -14.177008
v 0.000000 -15.471423 -14.087601
v 0.000000 -15.974391 -13.828129
v 0.000000 -16.373550 -13.423995
v 0.000000 -16.629824 -12.914757
v 0.000000 -16.718132 -12.350262
v -4.380936 -14.913877 -13.483135
v -4.353308 -15.471423 -13.398103
v -4.273127 -15.974391 -13.151331
v -4.148243 -16.373550 -12.766978
v -3.990880 -16.629824 -12.282663
v -3.816441 -16.718132 -11.745796
v -8.333035 -14.913877 -11.469439
v -8.280482 -15.471423 -11.397105
v -8.127970 -15.974391 -11.187191
v -7.890425 -16.373550 -10.860240
v -7.591102 -16.629824 -10.448256
v -7.259300 -16.718132 -9.991570
v -11.469438 -14.913877 -8.333034
v -11.397105 -15.471423 -8.280481
v -11.187190 -15.974391 -8.127969
v -10.860239 -16.373550 -7.890424
v -10.448256 -16.629824 -7.591102
v -9.991570 -16.718132 -7.259300
v -13.483131 -14.913877 -4.380935
v -13.398101 -15.471423 -4.353306
v -13.151330 -15.974391 -4.273126
v -12.766976 -16.373550 -4.148242
v -12.282661 -16.629824 -3.990878
v -11.745794 -16.718132 -3.816439
v -14.177003 -14.913877 0.000000
v -14.087596 -15.471423 0.000000
v -13.828127 -15.974391 0.000000
v -13.423992 -16.373550 0.000000
v -12.914754 -16.629824 0.000000
v -12.350259 -16.718132 0.000000
v -13.483131 -14.913877 4.380935
v -13.398101 -15.471423 4.353306
v -13.151330 -15.974391 4.273126
v -12.766976 -16.373550 4.148242
v -12.282661 -16.629824 3.990878
v -11.745794 -16.718132 3.816439
v -11.469437 -14.913877 8.333034
v -11.397104 -15.471423 8.280481
v -11.187189 -15.974391 8.127969
v -10.860238 -16.373550 7.890424
v -10.448256 -16.629824 7.591102
v -9.991570 -16.718132 7.259300
v -8.333034 -14.913877 11.469436
v -8.280481 -15.471423 11.397103
v -8.127969 -15.974391 11.187188
v -7.890424 -16.373550 10.860238
v -7.591102 -16.629824 10.448254
v -7.259300 -16.718132 9.991568
v -4.380935 -14.913877 13.483130
v -4.353306 -15.471423 13.398099
v -4.273126 -15.974391 13.151328
v -4.148242 -16.373550 12.766974
v -3.990878 -16.629824 12.282660
v -3.816439 -16.718132 11.745791
v -0.000000 -14.913877 14.177002
v -0.000000 -15.471423 14.087595
v -0.000000 -15.974391 13.828125
v -0.000001 -16.373550 13.423990
v -0.000001 -16.629824 12.914752
v -0.000001 -16.718132 12.350256
v 4.380934 -14.913877 13.483130
v 4.353306 -15.471423 13.398098
v 4.273125 -15.974391 13.151327
v 4.148241 -16.373550 12.766973
v 3.990877 -16.629824 12.282660
v 3.816438 -16.718132 11.745791
v 8.333031 -14.913877 11.469435
v 8.280479 -15.471423 11.397102
v 8.127967 -15.974391 11.187187
v 7.890423 -16.373550 10.860237
v 7.591100 -16.629824 10.448253
v 7.259297 -16.718132 9.991567
v 11.469434 -14.913877 8.333033
v 11.397101 -15.471423 8.280480
v 11.187186 -15.974391 8.127968
v 10.860235 -16.373550 7.890424
v 10.448252 -16.629824 7.591101
v 9.991566 -16.718132 7.259299
v 13.483129 -14.913877 4.380934
v 13.398097 -15.471423 4.353306
v 13.151326 -15.974391 4.273125
v 12.766973 -16.373550 4.148241
v 12.282658 -16.629824 3.990878
v 11.745790 -16.718132 3.816439
v 14.177000 -14.913877 0.000000
v 14.087593 -15.471423 -0.000000
v 13.828123 -15.974391 -0.000000
v 13.423988 -16.373550 -0.000001
v 12.914750 -16.629824 -0.000001
v 12.350255 -16.718132 -0.000002
vt 0.648603 0.795466
vt 0.626409 0.751908
vt 0.591842 0.717341
vt 0.548284 0.695147
vt 0.500000 0.687500
vt 0.451716 0.695147
vt 0.408159 0.717341
vt 0.373591 0.751909
vt 0.351397 0.795466
vt 0.343750 0.843750
vt 0.351397 0.892034
vt 0.373591 0.935591
vt 0.408159 0.970159
vt 0.451716 0.992353
vt 0.500000 1.000000
vt 0.548284 0.992353
vt 0.591841 0.970159
vt 0.626409 0.935591
vt 0.648603 0.892034
vt 0.656250 0.843750
vt 0.500000 0.837500
vt 0.387500 0.340365
vt 0.375000 0.688440
vt 0.400000 0.340365
vt 0.387500 0.688440
vt 0.412500 0.340365
vt 0.400000 0.688440
vt 0.425000 0.340365
vt 0.412500 0.688440
vt 0.437500 0.340365
vt 0.425000 0.688440
vt 0.450000 0.340365
vt 0.437500 0.688440
vt 0.462500 0.340365
vt 0.450000 0.688440
vt 0.475000 0.340365
vt 0.462500 0.688440
vt 0.487500 0.340365
vt 0.475000 0.688440
vt 0.500000 0.340365
vt 0.487500 0.688440
vt 0.512500 0.340365
vt 0.500000 0.688440
vt 0.525000 0.340365
vt 0.512500 0.688440
vt 0.537500 0.340365
vt 0.525000 0.688440
vt 0.550000 0.340365
vt 0.537500 0.688440
vt 0.562500 0.340365
vt 0.550000 0.688440
vt 0.575000 0.340365
vt 0.562500 0.688440
vt 0.587500 0.340365
vt 0.575000 0.688440
vt 0.600000 0.340365
vt 0.587500 0.688440
vt 0.612500 0.340365
vt 0.600000 0.688440
vt 0.625000 0.340365
vt 0.625000 0.688440
vt 0.612500 0.688440
vt 0.629455 0.113382
vt 0.610121 0.075437
vt 0.580007 0.045324
vt 0.542062 0.025990
vt 0.500000 0.019328
vt 0.457938 0.025990
vt 0.419993 0.045324
vt 0.389879 0.075437
vt 0.370545 0.113382
vt 0.363883 0.155445
vt 0.370545 0.197507
vt 0.389879 0.235452
vt 0.419993 0.265565
vt 0.457938 0.284899
vt 0.500000 0.291561
vt 0.542062 0.284899
vt 0.580007 0.265566
vt 0.610121 0.235452
vt 0.629455 0.197507
vt 0.500000 0.150000
vt 0.636117 0.155445
vt 0.375000 0.340365
vt 0.625000 0.330813
vt 0.375000 0.330813
vt 0.625000 0.321476
vt 0.375000 0.321476
vt 0.625000 0.312500
vt 0.648603 0.107966
vt 0.375000 0.312500
vt 0.638947 0.110703
vt 0.387500 0.330941
vt 0.387500 0.321634
vt 0.626409 0.064408
vt 0.387500 0.312500
vt 0.618196 0.069975
vt 0.400000 0.330943
vt 0.400000 0.321636
vt 0.591842 0.029841
vt 0.400000 0.312500
vt 0.585874 0.037654
vt 0.412500 0.330944
vt 0.412500 0.321636
vt 0.548284 0.007647
vt 0.412500 0.312500
vt 0.545147 0.016902
vt 0.425000 0.330943
vt 0.425000 0.321636
vt 0.500000 -0.000000
vt 0.425000 0.312500
vt 0.500000 0.009752
vt 0.437500 0.330944
vt 0.437500 0.321636
vt 0.451716 0.007647
vt 0.437500 0.312500
vt 0.454853 0.016902
vt 0.450000 0.330943
vt 0.450000 0.321636
vt 0.408159 0.029841
vt 0.450000 0.312500
vt 0.414126 0.037654
vt 0.462500 0.330944
vt 0.462500 0.321636
vt 0.373591 0.064409
vt 0.462500 0.312500
vt 0.381805 0.069975
vt 0.475000 0.330943
vt 0.475000 0.321636
vt 0.351397 0.107966
vt 0.475000 0.312500
vt 0.361053 0.110703
vt 0.487500 0.330944
vt 0.487500 0.321636
vt 0.343750 0.156250
vt 0.487500 0.312500
vt 0.353902 0.155849
vt 0.500000 0.330944
vt 0.500000 0.321636
vt 0.351397 0.204534
vt 0.500000 0.312500
vt 0.361053 0.200996
vt 0.512500 0.330944
vt 0.512500 0.321636
vt 0.373591 0.248091
vt 0.512500 0.312500
vt 0.381804 0.241723
vt 0.525000 0.330943
vt 0.525000 0.321636
vt 0.408159 0.282659
vt 0.525000 0.312500
vt 0.414126 0.274045
vt 0.537500 0.330944
vt 0.537500 0.321636
vt 0.451716 0.304853
vt 0.537500 0.312500
vt 0.454853 0.294797
vt 0.550000 0.330943
vt 0.550000 0.321636
vt 0.500000 0.312500
vt 0.550000 0.312500
vt 0.500000 0.301947
vt 0.562500 0.330944
vt 0.562500 0.321636
vt 0.548284 0.304853
vt 0.562500 0.312500
vt 0.545147 0.294797
vt 0.575000 0.330944
vt 0.575000 0.321636
vt 0.591841 0.282659
vt 0.575000 0.312500
vt 0.585874 0.274045
vt 0.587500 0.330944
vt 0.587500 0.321636
vt 0.626409 0.248091
vt 0.587500 0.312500
vt 0.618195 0.241724
vt 0.600000 0.330943
vt 0.600000 0.321636
vt 0.648603 0.204534
vt 0.600000 0.312500
vt 0.638947 0.200996
vt 0.612500 0.330941
vt 0.612500 0.321633
vt 0.656250 0.156250
vt 0.612500 0.312500
vt 0.646098 0.155849
vn 0.000000 1.000000 0.000000
vn 0.000000 1.000000 0.000000
vn 0.000000 1.000000 -0.000000
vn 0.000000 1.000000 -0.000000
vn 0.000000 1.000000 -0.000000
vn 0.000000 1.000000 0.000000
vn 0.000000 1.000000 0.000000
vn 0.000000 1.000000 0.000000
vn 0.000000 1.000000 0.000000
vn 0.000000 1.000000 0.000000
vn 0.000000 1.000000 0.000000
vn 0.000000 1.000000 -0.000000
vn 0.000000 1.000000 0.000000
vn 0.000000 1.000000 -0.000000
vn 0.000000 1.000000 -0.000000
vn 0.000000 1.000000 -0.000000
vn 0.000000 1.000000 -0.000000
vn 0.000000 1.000000 -0.000000
vn 0.000000 1.000000 -0.000000
vn 0.000000 1.000000 0.000000
vn 0.000000 1.000000 0.000000
vn 0.951050 -0.003800 -0.309014
vn 0.809011 -0.003800 -0.587781
vn 0.809017 0.000000 -0.587785
vn 0.951057 0.000000 -0.309016
vn 0.587781 -0.003800 -0.809011
vn 0.587785 0.000000 -0.809017
vn 0.309015 -0.003800 -0.951050
vn 0.309017 0.000000 -0.951057
vn -0.000000 -0.003800 -0.999993
vn -0.000000 0.000000 -1.000000
vn -0.309015 -0.003800 -0.951050
vn -0.309017 0.000000 -0.951056
vn -0.587781 -0.003800 -0.809011
vn -0.587786 0.000000 -0.809017
vn -0.809011 -0.003800 -0.587781
vn -0.809017 0.000000 -0.587785
vn -0.951050 -0.003800 -0.309015
vn -0.951057 0.000000 -0.309017
vn -0.999993 -0.003800 0.000000
vn -1.000000 0.000000 0.000000
vn -0.951050 -0.003800 0.309015
vn -0.951057 0.000000 0.309017
vn -0.809011 -0.003800 0.587781
vn -0.809017 0.000000 0.587785
vn -0.587781 -0.003800 0.809011
vn -0.587785 0.000000 0.809017
vn -0.309015 -0.003800 0.951050
vn -0.309017 0.000000 0.951057
vn 0.000000 -0.003800 0.999993
vn 0.000000 0.000000 1.000000
vn 0.309015 -0.003800 0.951050
vn 0.309017 0.000000 0.951056
vn 0.587781 -0.003800 0.809011
vn 0.587785 0.000000 0.809017
vn 0.809011 -0.003800 0.587781
vn 0.809017 0.000000 0.587785
vn 0.951050 -0.003800 0.309015
vn 0.951057 0.000000 0.309017
vn 0.999993 -0.003800 0.000001
vn 1.000000 0.000000 0.000001
vn 0.012966 -0.999872 -0.009420
vn 0.015242 -0.999872 -0.004953
vn 0.000000 -1.000000 0.000000
vn 0.009420 -0.999872 -0.012966
vn 0.004952 -0.999872 -0.015242
vn -0.000000 -0.999872 -0.016026
vn -0.004952 -0.999872 -0.015242
vn -0.009420 -0.999872 -0.012966
vn -0.012966 -0.999872 -0.009420
vn -0.015242 -0.999872 -0.004952
vn -0.016027 -0.999872 -0.000000
vn -0.015242 -0.999872 0.004952
vn -0.012966 -0.999872 0.009420
vn -0.009420 -0.999872 0.012966
vn -0.004952 -0.999872 0.015242
vn -0.000000 -0.999872 0.016026
vn 0.004952 -0.999872 0.015242
vn 0.009420 -0.999872 0.012966
vn 0.012966 -0.999872 0.009420
vn 0.015242 -0.999872 0.004952
vn 0.016026 -0.999872 -0.000000
vn 0.306903 -0.946502 -0.099719
vn 0.261067 -0.946503 -0.189677
vn 0.566337 -0.803369 -0.184014
vn 0.481755 -0.803369 -0.350015
vn 0.772427 -0.583410 -0.250976
vn 0.657066 -0.583410 -0.477386
vn 0.905190 -0.306805 -0.294113
vn 0.770000 -0.306805 -0.559438
vn 0.189676 -0.946503 -0.261066
vn 0.350015 -0.803369 -0.481755
vn 0.477386 -0.583409 -0.657067
vn 0.559438 -0.306806 -0.770000
vn 0.099719 -0.946503 -0.306901
vn 0.184014 -0.803368 -0.566338
vn 0.250977 -0.583409 -0.772428
vn 0.294114 -0.306807 -0.905189
vn -0.000000 -0.946503 -0.322696
vn -0.000000 -0.803368 -0.595483
vn -0.000000 -0.583410 -0.812178
vn -0.000000 -0.306807 -0.951772
vn -0.099719 -0.946503 -0.306903
vn -0.184014 -0.803368 -0.566338
vn -0.250977 -0.583409 -0.772427
vn -0.294114 -0.306807 -0.905189
vn -0.189676 -0.946503 -0.261067
vn -0.350016 -0.803368 -0.481756
vn -0.477387 -0.583409 -0.657066
vn -0.559438 -0.306806 -0.769999
vn -0.261067 -0.946503 -0.189677
vn -0.481755 -0.803368 -0.350016
vn -0.657066 -0.583409 -0.477387
vn -0.770000 -0.306805 -0.559437
vn -0.306902 -0.946503 -0.099718
vn -0.566337 -0.803369 -0.184014
vn -0.772428 -0.583409 -0.250977
vn -0.905190 -0.306805 -0.294114
vn -0.322696 -0.946503 -0.000000
vn -0.595481 -0.803369 -0.000000
vn -0.812179 -0.583409 0.000000
vn -0.951773 -0.306804 0.000000
vn -0.306902 -0.946503 0.099718
vn -0.566337 -0.803369 0.184014
vn -0.772428 -0.583409 0.250977
vn -0.905190 -0.306805 0.294114
vn -0.261067 -0.946503 0.189676
vn -0.481755 -0.803369 0.350015
vn -0.657066 -0.583409 0.477386
vn -0.770000 -0.306805 0.559437
vn -0.189676 -0.946503 0.261066
vn -0.350015 -0.803369 0.481755
vn -0.477386 -0.583409 0.657067
vn -0.559438 -0.306806 0.770000
vn -0.099718 -0.946503 0.306901
vn -0.184014 -0.803368 0.566338
vn -0.250977 -0.583409 0.772428
vn -0.294114 -0.306806 0.905189
vn 0.000000 -0.946503 0.322696
vn 0.000000 -0.803368 0.595482
vn 0.000000 -0.583409 0.812178
vn 0.000000 -0.306805 0.951772
vn 0.099718 -0.946503 0.306903
vn 0.184014 -0.803368 0.566338
vn 0.250977 -0.583409 0.772428
vn 0.294114 -0.306805 0.905189
vn 0.189676 -0.946503 0.261067
vn 0.350015 -0.803368 0.481756
vn 0.477387 -0.583409 0.657066
vn 0.559438 -0.306805 0.770000
vn 0.261066 -0.946503 0.189676
vn 0.481755 -0.803368 0.350016
vn 0.657066 -0.583408 0.477387
vn 0.770000 -0.306805 0.559438
vn 0.306902 -0.946503 0.099718
vn 0.566337 -0.803369 0.184014
vn 0.772428 -0.583409 0.250977
vn 0.905189 -0.306805 0.294114
vn 0.322696 -0.946503 0.000000
vn 0.595482 -0.803369 0.000000
vn 0.812178 -0.583410 0.000001
vn 0.951772 -0.306806 0.000001
s 1
g body1
usemtl blinn2SG
f 1/19/1 2/18/2 22/21/3
f 2/18/2 3/17/4 22/21/3
f 3/17/4 4/16/5 22/21/3
f 4/16/5 5/15/6 22/21/3
f 5/15/6 6/14/7 22/21/3
f 6/14/7 7/13/8 22/21/3
f 7/13/8 8/12/9 22/21/3
f 8/12/9 9/11/10 22/21/3
f 9/11/10 10/10/11 22/21/3
f 10/10/11 11/9/12 22/21/3
f 11/9/12 12/8/13 22/21/3
f 12/8/13 13/7/14 22/21/3
f 13/7/14 14/6/15 22/21/3
f 14/6/15 15/5/16 22/21/3
f 15/5/16 16/4/17 22/21/3
f 16/4/17 17/3/18 22/21/3
f 17/3/18 18/2/19 22/21/3
f 18/2/19 19/1/20 22/21/3
f 19/1/20 20/20/21 22/21/3
f 20/20/21 1/19/1 22/21/3
s 2
f 23/84/22 29/22/23 2/25/24 1/23/25
f 29/22/23 35/24/26 3/27/27 2/25/24
f 35/24/26 41/26/28 4/29/29 3/27/27
f 41/26/28 47/28/30 5/31/31 4/29/29
f 47/28/30 53/30/32 6/33/33 5/31/31
f 53/30/32 59/32/34 7/35/35 6/33/33
f 59/32/34 65/34/36 8/37/37 7/35/35
f 65/34/36 71/36/38 9/39/39 8/37/37
f 71/36/38 77/38/40 10/41/41 9/39/39
f 77/38/40 83/40/42 11/43/43 10/41/41
f 83/40/42 89/42/44 12/45/45 11/43/43
f 89/42/44 95/44/46 13/47/47 12/45/45
f 95/44/46 101/46/48 14/49/49 13/47/47
f 101/46/48 107/48/50 15/51/51 14/49/49
f 107/48/50 113/50/52 16/53/53 15/51/51
f 113/50/52 119/52/54 17/55/55 16/53/53
f 119/52/54 125/54/56 18/57/57 17/55/55
f 125/54/56 131/56/58 19/59/59 18/57/57
f 131/56/58 137/58/60 20/62/61 19/59/59
f 137/58/60 23/60/22 1/61/25 20/62/61
f 34/64/62 28/63/63 21/82/64
f 40/65/65 34/64/62 21/82/64
f 46/66/66 40/65/65 21/82/64
f 52/67/67 46/66/66 21/82/64
f 58/68/68 52/67/67 21/82/64
f 64/69/69 58/68/68 21/82/64
f 70/70/70 64/69/69 21/82/64
f 76/71/71 70/70/70 21/82/64
f 82/72/72 76/71/71 21/82/64
f 88/73/73 82/72/72 21/82/64
f 94/74/74 88/73/73 21/82/64
f 100/75/75 94/74/74 21/82/64
f 106/76/76 100/75/75 21/82/64
f 112/77/77 106/76/76 21/82/64
f 118/78/78 112/77/77 21/82/64
f 124/79/79 118/78/78 21/82/64
f 130/80/80 124/79/79 21/82/64
f 136/81/81 130/80/80 21/82/64
f 142/83/82 136/81/81 21/82/64
f 28/63/63 142/83/82 21/82/64
f 27/92/83 28/63/63 34/64/62 33/97/84
f 26/90/85 27/92/83 33/97/84 32/95/86
f 25/88/87 26/91/85 32/96/86 31/94/88
f 23/84/22 24/86/89 30/93/90 29/22/23
f 24/86/89 25/88/87 31/94/88 30/93/90
f 33/97/84 34/64/62 40/65/65 39/102/91
f 32/95/86 33/97/84 39/102/91 38/100/92
f 31/94/88 32/96/86 38/101/92 37/99/93
f 29/22/23 30/93/90 36/98/94 35/24/26
f 30/93/90 31/94/88 37/99/93 36/98/94
f 39/102/91 40/65/65 46/66/66 45/107/95
f 38/100/92 39/102/91 45/107/95 44/105/96
f 37/99/93 38/101/92 44/106/96 43/104/97
f 35/24/26 36/98/94 42/103/98 41/26/28
f 36/98/94 37/99/93 43/104/97 42/103/98
f 45/107/95 46/66/66 52/67/67 51/112/99
f 44/105/96 45/107/95 51/112/99 50/110/100
f 43/104/97 44/106/96 50/111/100 49/109/101
f 41/26/28 42/103/98 48/108/102 47/28/30
f 42/103/98 43/104/97 49/109/101 48/108/102
f 51/112/99 52/67/67 58/68/68 57/117/103
f 50/110/100 51/112/99 57/117/103 56/115/104
f 49/109/101 50/111/100 56/116/104 55/114/105
f 47/28/30 48/108/102 54/113/106 53/30/32
f 48/108/102 49/109/101 55/114/105 54/113/106
f 57/117/103 58/68/68 64/69/69 63/122/107
f 56/115/104 57/117/103 63/122/107 62/120/108
f 55/114/105 56/116/104 62/121/108 61/119/109
f 53/30/32 54/113/106 60/118/110 59/32/34
f 54/113/106 55/114/105 61/119/109 60/118/110
f 63/122/107 64/69/69 70/70/70 69/127/111
f 62/120/108 63/122/107 69/127/111 68/125/112
f 61/119/109 62/121/108 68/126/112 67/124/113
f 59/32/34 60/118/110 66/123/114 65/34/36
f 60/118/110 61/119/109 67/124/113 66/123/114
f 69/127/111 70/70/70 76/71/71 75/132/115
f 68/125/112 69/127/111 75/132/115 74/130/116
f 67/124/113 68/126/112 74/131/116 73/129/117
f 65/34/36 66/123/114 72/128/118 71/36/38
f 66/123/114 67/124/113 73/129/117 72/128/118
f 75/132/115 76/71/71 82/72/72 81/137/119
f 74/130/116 75/132/115 81/137/119 80/135/120
f 73/129/117 74/131/116 80/136/120 79/134/121
f 71/36/38 72/128/118 78/133/122 77/38/40
f 72/128/118 73/129/117 79/134/121 78/133/122
f 81/137/119 82/72/72 88/73/73 87/142/123
f 80/135/120 81/137/119 87/142/123 86/140/124
f 79/134/121 80/136/120 86/141/124 85/139/125
f 77/38/40 78/133/122 84/138/126 83/40/42
f 78/133/122 79/134/121 85/139/125 84/138/126
f 87/142/123 88/73/73 94/74/74 93/147/127
f 86/140/124 87/142/123 93/147/127 92/145/128
f 85/139/125 86/141/124 92/146/128 91/144/129
f 83/40/42 84/138/126 90/143/130 89/42/44
f 84/138/126 85/139/125 91/144/129 90/143/130
f 93/147/127 94/74/74 100/75/75 99/152/131
f 92/145/128 93/147/127 99/152/131 98/150/132
f 91/144/129 92/146/128 98/151/132 97/149/133
f 89/42/44 90/143/130 96/148/134 95/44/46
f 90/143/130 91/144/129 97/149/133 96/148/134
f 99/152/131 100/75/75 106/76/76 105/157/135
f 98/150/132 99/152/131 105/157/135 104/155/136
f 97/149/133 98/151/132 104/156/136 103/154/137
f 95/44/46 96/148/134 102/153/138 101/46/48
f 96/148/134 97/149/133 103/154/137 102/153/138
f 105/157/135 106/76/76 112/77/77 111/162/139
f 104/155/136 105/157/135 111/162/139 110/160/140
f 103/154/137 104/156/136 110/161/140 109/159/141
f 101/46/48 102/153/138 108/158/142 107/48/50
f 102/153/138 103/154/137 109/159/141 108/158/142
f 111/162/139 112/77/77 118/78/78 117/167/143
f 110/160/140 111/162/139 117/167/143 116/165/144
f 109/159/141 110/161/140 116/166/144 115/164/145
f 107/48/50 108/158/142 114/163/146 113/50/52
f 108/158/142 109/159/141 115/164/145 114/163/146
f 117/167/143 118/78/78 124/79/79 123/172/147
f 116/165/144 117/167/143 123/172/147 122/170/148
f 115/164/145 116/166/144 122/171/148 121/169/149
f 113/50/52 114/163/146 120/168/150 119/52/54
f 114/163/146 115/164/145 121/169/149 120/168/150
f 123/172/147 124/79/79 130/80/80 129/177/151
f 122/170/148 123/172/147 129/177/151 128/175/152
f 121/169/149 122/171/148 128/176/152 127/174/153
f 119/52/54 120/168/150 126/173/154 125/54/56
f 120/168/150 121/169/149 127/174/153 126/173/154
f 129/177/151 130/80/80 136/81/81 135/182/155
f 128/175/152 129/177/151 135/182/155 134/180/156
f 127/174/153 128/176/152 134/181/156 133/179/157
f 125/54/56 126/173/154 132/178/158 131/56/58
f 126/173/154 127/174/153 133/179/157 132/178/158
f 135/182/155 136/81/81 142/83/82 141/187/159
f 134/180/156 135/182/155 141/187/159 140/185/160
f 133/179/157 134/181/156 140/186/160 139/184/161
f 131/56/58 132/178/158 138/183/162 137/58/60
f 132/178/158 133/179/157 139/184/161 138/183/162
f 28/63/63 27/92/83 141/187/159 142/83/82
f 27/92/83 26/90/85 140/185/160 141/187/159
f 26/89/85 25/87/87 139/184/161 140/186/160
f 25/87/87 24/85/89 138/183/162 139/184/161
f 24/85/89 23/60/22 137/58/60 138/183/162
